<?xml version="1.0" encoding="utf-8"?>
<!-- Generator: Adobe Illustrator 21.0.2, SVG Export Plug-In . SVG Version: 6.00 Build 0)  -->
<svg version="1.1" id="Calque_1" xmlns="http://www.w3.org/2000/svg" xmlns:xlink="http://www.w3.org/1999/xlink" x="0px" y="0px"
	 viewBox="0 0 130 30" style="enable-background:new 0 0 130 30;" xml:space="preserve">
<style type="text/css">
	.st0{fill:#FFFFFF;}
</style>
<g>
	<path class="st0" d="M0,28V2.4c0-0.5,0.2-0.9,0.7-1.2c0.5-0.3,1-0.4,1.7-0.4S3.7,1,4.2,1.2c0.5,0.3,0.7,0.7,0.7,1.2v22.7H14
		c0.4,0,0.8,0.2,1.1,0.7c0.3,0.4,0.4,1,0.4,1.6c0,0.6-0.1,1.1-0.4,1.6c-0.3,0.4-0.6,0.7-1.1,0.7H2.1c-0.6,0-1.1-0.1-1.5-0.4
		C0.2,28.9,0,28.5,0,28z"/>
	<path class="st0" d="M16.8,21.9v-3.2c0-2.2,0.8-4,2.4-5.6c1.6-1.6,3.5-2.4,5.7-2.4c2.2,0,4.1,0.8,5.7,2.4c1.6,1.6,2.4,3.5,2.4,5.6
		v3.2c0,2.1-0.8,4-2.4,5.6C29,29.2,27.1,30,24.9,30s-4.1-0.8-5.7-2.4C17.6,25.9,16.8,24,16.8,21.9z M21.6,21.9c0,0.9,0.3,1.8,1,2.5
		c0.6,0.7,1.4,1.1,2.3,1.1c0.9,0,1.6-0.4,2.3-1.1c0.7-0.7,1-1.6,1-2.5v-3.2c0-0.9-0.3-1.7-1-2.4c-0.7-0.7-1.4-1.1-2.3-1.1
		c-0.9,0-1.7,0.4-2.3,1.1c-0.6,0.7-1,1.5-1,2.4V21.9z"/>
	<path class="st0" d="M36.1,28V1.6c0-0.5,0.2-0.9,0.7-1.1s1-0.4,1.7-0.4c0.7,0,1.3,0.1,1.8,0.4C40.7,0.7,41,1.1,41,1.6v16.5l7-7
		c0.3-0.3,0.6-0.4,1-0.4c0.5,0,1,0.3,1.6,0.8c0.5,0.5,0.8,1.1,0.8,1.7c0,0.3-0.1,0.7-0.4,0.9l-4.4,4.2l5.5,8.3
		c0.2,0.3,0.3,0.5,0.3,0.8c0,0.6-0.3,1.1-0.9,1.7c-0.6,0.6-1.2,0.8-1.8,0.8c-0.5,0-0.9-0.2-1.2-0.7l-5.1-7.8L41,23.7V28
		c0,0.4-0.2,0.8-0.7,1.1c-0.5,0.3-1.1,0.5-1.7,0.5c-0.7,0-1.2-0.2-1.7-0.5C36.4,28.8,36.1,28.4,36.1,28z"/>
	<path class="st0" d="M54.3,4.5c0-0.6,0.3-1.1,0.8-1.6c0.5-0.4,1.2-0.7,2-0.7c0.7,0,1.3,0.2,1.8,0.7c0.5,0.4,0.7,1,0.7,1.6
		c0,0.6-0.2,1.1-0.7,1.6c-0.5,0.5-1.1,0.7-1.8,0.7c-0.8,0-1.4-0.2-2-0.7C54.5,5.6,54.3,5.1,54.3,4.5z M54.7,28V12.5
		c0-0.5,0.2-0.9,0.6-1.1c0.4-0.3,1-0.4,1.7-0.4c0.7,0,1.2,0.1,1.7,0.4c0.4,0.3,0.7,0.7,0.7,1.1V28c0,0.4-0.2,0.8-0.7,1.1
		c-0.5,0.3-1,0.5-1.6,0.5c-0.6,0-1.2-0.2-1.6-0.5C54.9,28.8,54.7,28.4,54.7,28z"/>
	<path class="st0" d="M62,26.6c0-0.5,0.2-1,0.5-1.5c0.3-0.5,0.7-0.8,1.1-0.8c0.3,0,0.6,0.1,1,0.4c0.4,0.3,1,0.5,1.6,0.8
		c0.7,0.3,1.5,0.4,2.4,0.4c1.8,0,2.8-0.5,2.8-1.6c0-0.6-0.3-1.1-0.9-1.5c-0.6-0.4-1.3-0.7-2.2-0.9c-0.9-0.2-1.7-0.5-2.6-0.8
		c-0.9-0.3-1.6-0.9-2.2-1.6c-0.6-0.8-0.9-1.7-0.9-2.9c0-1.6,0.5-3,1.6-4.2c1.1-1.2,2.8-1.8,5.1-1.8c1.5,0,2.9,0.3,4.1,0.7
		c1.2,0.5,1.8,1.1,1.8,1.8c0,0.4-0.2,1-0.5,1.6c-0.3,0.6-0.8,0.9-1.3,0.9c-0.2,0-0.7-0.2-1.6-0.5c-0.9-0.3-1.7-0.5-2.5-0.5
		c-0.8,0-1.5,0.2-1.9,0.5c-0.4,0.4-0.7,0.8-0.7,1.2c0,0.4,0.2,0.8,0.7,1.1c0.4,0.3,1,0.5,1.7,0.7c0.7,0.2,1.4,0.4,2.1,0.6
		s1.5,0.6,2.1,0.9c0.6,0.4,1.2,0.9,1.6,1.7c0.4,0.8,0.7,1.7,0.7,2.7c0,1.8-0.6,3.3-1.8,4.3c-1.2,1-2.9,1.6-5.1,1.6
		c-1.9,0-3.5-0.3-4.8-1C62.6,28.3,62,27.5,62,26.6z"/>
	<path class="st0" d="M77.6,24.6c0-2.1,0.7-3.5,2.2-4.4c1.5-0.8,3.7-1.3,6.5-1.3h1.5v-0.5c0-1-0.3-1.9-0.8-2.6
		c-0.5-0.7-1.4-1.1-2.5-1.1c-1.1,0-2.1,0.2-2.9,0.7c-0.8,0.4-1.3,0.7-1.4,0.7c-0.5,0-0.9-0.3-1.2-0.8c-0.3-0.5-0.4-1.1-0.4-1.7
		c0-0.8,0.6-1.4,1.9-2c1.3-0.6,2.6-0.8,4.1-0.8c2.7,0,4.7,0.7,6.1,2.2c1.3,1.5,2,3.3,2,5.5V28c0,0.4-0.2,0.8-0.7,1.1
		c-0.4,0.3-1,0.5-1.7,0.5c-0.6,0-1.1-0.2-1.6-0.5c-0.4-0.3-0.6-0.7-0.6-1.2v-1.2c-1.7,2.2-3.6,3.3-5.7,3.3c-1.4,0-2.6-0.5-3.5-1.4
		C78,27.7,77.6,26.4,77.6,24.6z M82.4,24c0,0.7,0.2,1.2,0.5,1.5c0.4,0.3,0.8,0.5,1.4,0.5c0.8,0,1.6-0.4,2.3-1.1
		c0.7-0.7,1.1-1.6,1.1-2.5v-0.8h-0.6c-1.5,0-2.7,0.2-3.6,0.5C82.8,22.4,82.4,23,82.4,24z"/>
	<path class="st0" d="M96.6,28V1.6c0-0.5,0.2-0.9,0.7-1.1S98.3,0,99,0c0.7,0,1.2,0.1,1.7,0.4c0.5,0.3,0.7,0.7,0.7,1.1V28
		c0,0.4-0.2,0.8-0.7,1.1c-0.5,0.3-1.1,0.5-1.7,0.5c-0.7,0-1.2-0.2-1.7-0.5C96.8,28.8,96.6,28.4,96.6,28z"/>
	<path class="st0" d="M105.8,28V1.6c0-0.5,0.2-0.9,0.7-1.1c0.4-0.3,1-0.4,1.7-0.4c0.7,0,1.2,0.1,1.7,0.4c0.5,0.3,0.7,0.7,0.7,1.1V28
		c0,0.4-0.2,0.8-0.7,1.1c-0.5,0.3-1.1,0.5-1.7,0.5c-0.7,0-1.2-0.2-1.7-0.5C106.1,28.8,105.8,28.4,105.8,28z"/>
	<path class="st0" d="M114.1,21.9v-3.4c0-2.2,0.8-4,2.4-5.6c1.6-1.6,3.5-2.3,5.8-2.3c2.1,0,3.9,0.7,5.4,2.1c1.5,1.4,2.3,3.2,2.3,5.3
		c0,0.8-0.1,1.4-0.3,1.9c-0.2,0.5-0.5,0.9-0.9,1.1c-0.4,0.2-0.7,0.3-1.1,0.4c-0.3,0.1-0.7,0.1-1.3,0.1h-7.6v0.6c0,1.1,0.4,2,1.2,2.7
		c0.8,0.7,1.9,1,3.2,1c0.9,0,1.9-0.2,2.8-0.7c0.9-0.5,1.5-0.7,1.8-0.7c0.5,0,1,0.3,1.3,0.8c0.3,0.5,0.5,1,0.5,1.5
		c0,0.7-0.6,1.5-1.9,2.2c-1.3,0.7-2.8,1.1-4.7,1.1c-2.7,0-4.8-0.7-6.5-2.2C114.9,26.3,114.1,24.3,114.1,21.9z M118.9,18.6h5.5
		c0.4,0,0.7-0.1,0.8-0.2c0.2-0.1,0.2-0.4,0.2-0.8c0-0.9-0.3-1.6-1-2.1c-0.6-0.5-1.4-0.8-2.3-0.8c-0.9,0-1.6,0.3-2.3,0.8
		c-0.6,0.5-1,1.2-1,2.1V18.6z"/>
</g>
</svg>
